<svg width="30" height="18" viewBox="0 0 30 18" fill="none" xmlns="http://www.w3.org/2000/svg">
<path d="M11.236 13.28H3.94L2.596 17H0.292L6.34 0.368H8.86L14.884 17H12.58L11.236 13.28ZM10.612 11.504L7.588 3.056L4.564 11.504H10.612ZM16.7039 10.4C16.7039 9.04 16.9759 7.856 17.5199 6.848C18.0639 5.824 18.8159 5.032 19.7759 4.472C20.7519 3.912 21.8639 3.632 23.1119 3.632C24.7279 3.632 26.0559 4.024 27.0959 4.808C28.1519 5.592 28.8479 6.68 29.1839 8.072H26.8319C26.6079 7.272 26.1679 6.64 25.5119 6.176C24.8719 5.712 24.0719 5.48 23.1119 5.48C21.8639 5.48 20.8559 5.912 20.0879 6.776C19.3199 7.624 18.9359 8.832 18.9359 10.4C18.9359 11.984 19.3199 13.208 20.0879 14.072C20.8559 14.936 21.8639 15.368 23.1119 15.368C24.0719 15.368 24.8719 15.144 25.5119 14.696C26.1519 14.248 26.5919 13.608 26.8319 12.776H29.1839C28.8319 14.12 28.1279 15.2 27.0719 16.016C26.0159 16.816 24.6959 17.216 23.1119 17.216C21.8639 17.216 20.7519 16.936 19.7759 16.376C18.8159 15.816 18.0639 15.024 17.5199 14C16.9759 12.976 16.7039 11.776 16.7039 10.4Z" fill="#A5A5A5"/>
</svg>
